<svg width="272" height="308" viewBox="0 0 272 308" fill="none" xmlns="http://www.w3.org/2000/svg">
    <mask id="mask0_0_48" style="mask-type:alpha" maskUnits="userSpaceOnUse" x="0" y="0" width="272" height="308">
    <path d="M250 308H22C9.84974 308 0 298.15 0 286V22C0 9.84974 9.84974 0 22 0H170L272 102V286C272 298.15 262.15 308 250 308Z" fill="url(#paint0_linear_0_48)"/>
    </mask>
    <g mask="url(#mask0_0_48)">
    <path d="M250 308H22C9.84974 308 0 298.15 0 286V22C0 9.84974 9.84974 0 22 0H170L272 102V286C272 298.15 262.15 308 250 308Z" fill="url(#paint1_linear_0_48)"/>
    <g opacity="0.51" filter="url(#filter0_f_0_48)">
    <rect x="48" y="149" width="178" height="84" fill="#E33CC8" style="mix-blend-mode:darken"/>
    </g>
    <path d="M64.272 217.79C60.4273 217.79 56.925 216.895 53.765 215.104C52.6063 214.419 52.027 213.445 52.027 212.181C52.027 211.338 52.2903 210.601 52.817 209.969C53.3963 209.284 54.1337 208.942 55.029 208.942C55.5557 208.942 56.0297 209.047 56.451 209.258C58.8737 210.417 61.3227 210.996 63.798 210.996C66.642 210.996 68.933 210.18 70.671 208.547C72.4617 206.914 73.357 203.833 73.357 199.304V165.097C73.357 164.096 73.6993 163.254 74.384 162.569C75.0687 161.832 75.9113 161.463 76.912 161.463C77.9127 161.463 78.7553 161.832 79.44 162.569C80.1773 163.254 80.546 164.096 80.546 165.097V198.83C80.546 205.729 78.9923 210.627 75.885 213.524C72.8303 216.368 68.9593 217.79 64.272 217.79ZM104.548 217.395C103.547 217.395 102.704 217.053 102.02 216.368C101.335 215.683 100.993 214.841 100.993 213.84V165.492C100.993 164.491 101.335 163.649 102.02 162.964C102.704 162.227 103.547 161.858 104.548 161.858H122.56C127.563 161.858 131.645 162.701 134.805 164.386C137.965 166.071 140.229 168.231 141.599 170.864C142.968 173.497 143.653 176.341 143.653 179.396C143.653 182.451 142.968 185.295 141.599 187.928C140.229 190.561 137.965 192.721 134.805 194.406C131.645 196.091 127.563 196.934 122.56 196.934H108.182V213.84C108.182 214.841 107.813 215.683 107.076 216.368C106.391 217.053 105.548 217.395 104.548 217.395ZM121.849 190.14C127.221 190.14 130.986 189.113 133.146 187.059C135.358 185.005 136.464 182.451 136.464 179.396C136.464 176.341 135.358 173.787 133.146 171.733C130.986 169.679 127.221 168.652 121.849 168.652H108.182V190.14H121.849ZM184.012 217.79C178.587 217.79 173.768 216.605 169.555 214.235C165.342 211.812 162.076 208.468 159.759 204.202C157.442 199.883 156.283 194.985 156.283 189.508C156.283 183.925 157.494 178.975 159.917 174.656C162.34 170.337 165.631 166.993 169.792 164.623C174.005 162.253 178.666 161.068 183.775 161.068C187.883 161.068 191.464 161.568 194.519 162.569C197.626 163.57 200.602 164.965 203.446 166.756C203.867 166.967 204.236 167.335 204.552 167.862C204.868 168.389 205.026 168.968 205.026 169.6C205.026 170.495 204.71 171.259 204.078 171.891C203.499 172.523 202.709 172.839 201.708 172.839C201.129 172.839 200.576 172.707 200.049 172.444C197.574 170.969 195.098 169.863 192.623 169.126C190.148 168.389 187.462 168.02 184.565 168.02C180.562 168.02 176.955 168.863 173.742 170.548C170.529 172.233 168.001 174.709 166.158 177.974C164.367 181.187 163.472 185.031 163.472 189.508C163.472 193.616 164.315 197.303 166 200.568C167.738 203.781 170.213 206.335 173.426 208.231C176.691 210.074 180.536 210.996 184.96 210.996C189.911 210.996 194.519 209.837 198.785 207.52V193.221H185.75C184.855 193.221 184.091 192.905 183.459 192.273C182.827 191.641 182.511 190.877 182.511 189.982C182.511 189.087 182.827 188.323 183.459 187.691C184.091 187.059 184.855 186.743 185.75 186.743H201.313C202.366 186.743 203.262 187.112 203.999 187.849C204.736 188.586 205.105 189.482 205.105 190.535V208.468C205.105 209.574 204.815 210.575 204.236 211.47C203.709 212.313 202.998 212.945 202.103 213.366C196.204 216.315 190.174 217.79 184.012 217.79Z" fill="white"/>
    <path d="M53.765 215.104L52.7475 216.826L52.7632 216.835L52.779 216.844L53.765 215.104ZM52.817 209.969L51.2902 208.677L51.2854 208.683L51.2806 208.689L52.817 209.969ZM56.451 209.258L55.5566 211.047L55.5723 211.055L55.5881 211.062L56.451 209.258ZM70.671 208.547L69.3235 207.069L69.3125 207.079L69.3017 207.089L70.671 208.547ZM74.384 162.569L75.7982 163.983L75.8244 163.957L75.8496 163.93L74.384 162.569ZM79.44 162.569L77.9744 163.93L78.0248 163.984L78.0791 164.035L79.44 162.569ZM75.885 213.524L77.2478 214.988L77.2488 214.987L75.885 213.524ZM64.272 215.79C60.752 215.79 57.5926 214.974 54.751 213.364L52.779 216.844C56.2574 218.815 60.1027 219.79 64.272 219.79V215.79ZM54.7825 213.382C54.1847 213.029 54.027 212.684 54.027 212.181H50.027C50.027 214.206 51.028 215.81 52.7475 216.826L54.7825 213.382ZM54.027 212.181C54.027 211.794 54.1341 211.513 54.3534 211.249L51.2806 208.689C50.4465 209.689 50.027 210.883 50.027 212.181H54.027ZM54.3438 211.261C54.5439 211.024 54.7231 210.942 55.029 210.942V206.942C53.5442 206.942 52.2488 207.544 51.2902 208.677L54.3438 211.261ZM55.029 210.942C55.2822 210.942 55.4443 210.991 55.5566 211.047L57.3454 207.469C56.615 207.104 55.8291 206.942 55.029 206.942V210.942ZM55.5881 211.062C58.2569 212.339 60.9993 212.996 63.798 212.996V208.996C61.6461 208.996 59.4904 208.495 57.3139 207.454L55.5881 211.062ZM63.798 212.996C67.0467 212.996 69.862 212.051 72.0404 210.005L69.3017 207.089C68.004 208.308 66.2373 208.996 63.798 208.996V212.996ZM72.0185 210.025C74.4673 207.792 75.357 203.951 75.357 199.304H71.357C71.357 203.716 70.456 206.036 69.3235 207.069L72.0185 210.025ZM75.357 199.304V165.097H71.357V199.304H75.357ZM75.357 165.097C75.357 164.607 75.5024 164.279 75.7982 163.983L72.9698 161.155C71.8962 162.228 71.357 163.586 71.357 165.097H75.357ZM75.8496 163.93C76.1582 163.598 76.471 163.463 76.912 163.463V159.463C75.3517 159.463 73.9791 160.066 72.9184 161.208L75.8496 163.93ZM76.912 163.463C77.353 163.463 77.6658 163.598 77.9744 163.93L80.9056 161.208C79.8449 160.066 78.4723 159.463 76.912 159.463V163.463ZM78.0791 164.035C78.4115 164.343 78.546 164.656 78.546 165.097H82.546C82.546 163.537 81.9432 162.164 80.8009 161.103L78.0791 164.035ZM78.546 165.097V198.83H82.546V165.097H78.546ZM78.546 198.83C78.546 205.509 77.0299 209.723 74.5212 212.061L77.2488 214.987C80.9548 211.532 82.546 205.949 82.546 198.83H78.546ZM74.5222 212.06C71.8841 214.516 68.5208 215.79 64.272 215.79V219.79C69.3978 219.79 73.7766 218.22 77.2478 214.988L74.5222 212.06ZM102.02 216.368L103.434 214.954L102.02 216.368ZM102.02 162.964L103.434 164.378L103.46 164.352L103.485 164.325L102.02 162.964ZM134.805 164.386L135.746 162.621L134.805 164.386ZM141.599 170.864L139.824 171.787L141.599 170.864ZM141.599 187.928L139.824 187.005V187.005L141.599 187.928ZM134.805 194.406L135.746 196.171L134.805 194.406ZM108.182 196.934V194.934H106.182V196.934H108.182ZM107.076 216.368L105.715 214.902L105.688 214.928L105.662 214.954L107.076 216.368ZM133.146 187.059L131.785 185.593L131.776 185.602L131.767 185.61L133.146 187.059ZM133.146 171.733L131.767 173.182L131.776 173.19L131.785 173.199L133.146 171.733ZM108.182 168.652V166.652H106.182V168.652H108.182ZM108.182 190.14H106.182V192.14H108.182V190.14ZM104.548 215.395C104.058 215.395 103.73 215.25 103.434 214.954L100.606 217.782C101.679 218.856 103.037 219.395 104.548 219.395V215.395ZM103.434 214.954C103.138 214.658 102.993 214.33 102.993 213.84H98.9928C98.9928 215.351 99.5321 216.709 100.606 217.782L103.434 214.954ZM102.993 213.84V165.492H98.9928V213.84H102.993ZM102.993 165.492C102.993 165.002 103.138 164.674 103.434 164.378L100.606 161.55C99.5321 162.623 98.9928 163.981 98.9928 165.492H102.993ZM103.485 164.325C103.794 163.993 104.107 163.858 104.548 163.858V159.858C102.988 159.858 101.615 160.461 100.554 161.603L103.485 164.325ZM104.548 163.858H122.56V159.858H104.548V163.858ZM122.56 163.858C127.358 163.858 131.085 164.669 133.864 166.151L135.746 162.621C132.204 160.732 127.768 159.858 122.56 159.858V163.858ZM133.864 166.151C136.742 167.686 138.677 169.58 139.824 171.787L143.373 169.941C141.782 166.881 139.188 164.457 135.746 162.621L133.864 166.151ZM139.824 171.787C141.041 174.127 141.653 176.653 141.653 179.396H145.653C145.653 176.03 144.895 172.868 143.373 169.941L139.824 171.787ZM141.653 179.396C141.653 182.139 141.041 184.665 139.824 187.005L143.373 188.851C144.895 185.924 145.653 182.762 145.653 179.396H141.653ZM139.824 187.005C138.677 189.212 136.742 191.106 133.864 192.641L135.746 196.171C139.188 194.335 141.782 191.911 143.373 188.851L139.824 187.005ZM133.864 192.641C131.085 194.123 127.358 194.934 122.56 194.934V198.934C127.768 198.934 132.204 198.06 135.746 196.171L133.864 192.641ZM122.56 194.934H108.182V198.934H122.56V194.934ZM106.182 196.934V213.84H110.182V196.934H106.182ZM106.182 213.84C106.182 214.281 106.047 214.594 105.715 214.902L108.437 217.834C109.579 216.773 110.182 215.4 110.182 213.84H106.182ZM105.662 214.954C105.366 215.25 105.038 215.395 104.548 215.395V219.395C106.059 219.395 107.416 218.856 108.49 217.782L105.662 214.954ZM121.849 192.14C127.361 192.14 131.79 191.109 134.524 188.508L131.767 185.61C130.183 187.117 127.081 188.14 121.849 188.14V192.14ZM134.507 188.525C137.132 186.087 138.464 182.999 138.464 179.396H134.464C134.464 181.902 133.584 183.923 131.785 185.593L134.507 188.525ZM138.464 179.396C138.464 175.793 137.132 172.705 134.507 170.267L131.785 173.199C133.584 174.869 134.464 176.89 134.464 179.396H138.464ZM134.524 170.284C131.79 167.683 127.361 166.652 121.849 166.652V170.652C127.081 170.652 130.183 171.675 131.767 173.182L134.524 170.284ZM121.849 166.652H108.182V170.652H121.849V166.652ZM106.182 168.652V190.14H110.182V168.652H106.182ZM108.182 192.14H121.849V188.14H108.182V192.14ZM169.555 214.235L168.558 215.969L168.566 215.974L168.574 215.978L169.555 214.235ZM159.759 204.202L157.997 205.148L158.001 205.157L159.759 204.202ZM159.917 174.656L161.661 175.635L159.917 174.656ZM169.792 164.623L168.811 162.88L168.802 162.885L169.792 164.623ZM194.519 162.569L193.896 164.47L193.906 164.473L194.519 162.569ZM203.446 166.756L202.38 168.448L202.464 168.501L202.551 168.545L203.446 166.756ZM204.552 167.862L202.837 168.891V168.891L204.552 167.862ZM204.078 171.891L202.664 170.477L202.633 170.508L202.604 170.54L204.078 171.891ZM200.049 172.444L199.025 174.162L199.089 174.2L199.154 174.233L200.049 172.444ZM192.623 169.126L193.194 167.209L192.623 169.126ZM173.742 170.548L174.671 172.319V172.319L173.742 170.548ZM166.158 177.974L164.416 176.991L164.411 177L166.158 177.974ZM166 200.568L164.223 201.485L164.232 201.503L164.241 201.52L166 200.568ZM173.426 208.231L172.409 209.953L172.426 209.963L172.443 209.973L173.426 208.231ZM198.785 207.52L199.74 209.277L200.785 208.71V207.52H198.785ZM198.785 193.221H200.785V191.221H198.785V193.221ZM183.459 192.273L182.045 193.687L183.459 192.273ZM183.459 187.691L182.045 186.277L183.459 187.691ZM204.236 211.47L202.557 210.383L202.548 210.397L202.54 210.41L204.236 211.47ZM202.103 213.366L201.251 211.556L201.23 211.566L201.209 211.577L202.103 213.366ZM184.012 215.79C178.888 215.79 174.414 214.674 170.535 212.492L168.574 215.978C173.122 218.536 178.287 219.79 184.012 219.79V215.79ZM170.552 212.501C166.659 210.263 163.657 207.188 161.516 203.247L158.001 205.157C160.496 209.748 164.024 213.362 168.558 215.969L170.552 212.501ZM161.521 203.256C159.378 199.261 158.283 194.695 158.283 189.508H154.283C154.283 195.276 155.506 200.505 157.997 205.148L161.521 203.256ZM158.283 189.508C158.283 184.224 159.427 179.618 161.661 175.635L158.173 173.677C155.562 178.332 154.283 183.627 154.283 189.508H158.283ZM161.661 175.635C163.912 171.621 166.948 168.545 170.782 166.361L168.802 162.885C164.314 165.441 160.767 169.053 158.173 173.677L161.661 175.635ZM170.772 166.366C174.669 164.174 178.99 163.068 183.775 163.068V159.068C178.343 159.068 173.341 160.332 168.811 162.88L170.772 166.366ZM183.775 163.068C187.727 163.068 191.09 163.55 193.896 164.47L195.142 160.668C191.839 159.587 188.039 159.068 183.775 159.068V163.068ZM193.906 164.473C196.849 165.421 199.674 166.744 202.38 168.448L204.512 165.064C201.53 163.186 198.403 161.719 195.132 160.665L193.906 164.473ZM202.551 168.545C202.552 168.545 202.558 168.548 202.569 168.556C202.581 168.565 202.599 168.58 202.624 168.605C202.675 168.655 202.749 168.744 202.837 168.891L206.267 166.833C205.814 166.078 205.191 165.392 204.34 164.967L202.551 168.545ZM202.837 168.891C202.961 169.098 203.026 169.319 203.026 169.6H207.026C207.026 168.617 206.775 167.68 206.267 166.833L202.837 168.891ZM203.026 169.6C203.026 169.966 202.92 170.221 202.664 170.477L205.492 173.305C206.5 172.297 207.026 171.025 207.026 169.6H203.026ZM202.604 170.54C202.467 170.688 202.251 170.839 201.708 170.839V174.839C203.167 174.839 204.53 174.358 205.552 173.242L202.604 170.54ZM201.708 170.839C201.444 170.839 201.197 170.782 200.943 170.655L199.154 174.233C199.954 174.633 200.813 174.839 201.708 174.839V170.839ZM201.073 170.726C198.471 169.176 195.845 167.999 193.194 167.209L192.052 171.043C194.352 171.728 196.676 172.763 199.025 174.162L201.073 170.726ZM193.194 167.209C190.512 166.41 187.632 166.02 184.565 166.02V170.02C187.291 170.02 189.783 170.367 192.052 171.043L193.194 167.209ZM184.565 166.02C180.273 166.02 176.341 166.926 172.813 168.777L174.671 172.319C177.568 170.799 180.852 170.02 184.565 170.02V166.02ZM172.813 168.777C169.247 170.647 166.442 173.402 164.416 176.991L167.9 178.957C169.56 176.015 171.811 173.819 174.671 172.319L172.813 168.777ZM164.411 177C162.422 180.569 161.472 184.764 161.472 189.508H165.472C165.472 185.299 166.313 181.804 167.905 178.948L164.411 177ZM161.472 189.508C161.472 193.897 162.374 197.904 164.223 201.485L167.777 199.651C166.255 196.701 165.472 193.335 165.472 189.508H161.472ZM164.241 201.52C166.156 205.059 168.891 207.877 172.409 209.953L174.442 206.509C171.536 204.793 169.32 202.502 167.759 199.616L164.241 201.52ZM172.443 209.973C176.058 212.014 180.254 212.996 184.96 212.996V208.996C180.818 208.996 177.325 208.135 174.409 206.489L172.443 209.973ZM184.96 212.996C190.237 212.996 195.175 211.757 199.74 209.277L197.83 205.763C193.863 207.917 189.584 208.996 184.96 208.996V212.996ZM200.785 207.52V193.221H196.785V207.52H200.785ZM198.785 191.221H185.75V195.221H198.785V191.221ZM185.75 191.221C185.384 191.221 185.129 191.115 184.873 190.859L182.045 193.687C183.053 194.695 184.325 195.221 185.75 195.221V191.221ZM184.873 190.859C184.617 190.603 184.511 190.348 184.511 189.982H180.511C180.511 191.407 181.037 192.679 182.045 193.687L184.873 190.859ZM184.511 189.982C184.511 189.616 184.617 189.361 184.873 189.105L182.045 186.277C181.037 187.285 180.511 188.557 180.511 189.982H184.511ZM184.873 189.105C185.129 188.849 185.384 188.743 185.75 188.743V184.743C184.325 184.743 183.053 185.269 182.045 186.277L184.873 189.105ZM185.75 188.743H201.313V184.743H185.75V188.743ZM201.313 188.743C201.842 188.743 202.227 188.905 202.585 189.263L205.413 186.435C204.296 185.318 202.891 184.743 201.313 184.743V188.743ZM202.585 189.263C202.943 189.621 203.105 190.006 203.105 190.535H207.105C207.105 188.957 206.53 187.551 205.413 186.435L202.585 189.263ZM203.105 190.535V208.468H207.105V190.535H203.105ZM203.105 208.468C203.105 209.204 202.919 209.824 202.557 210.383L205.915 212.557C206.712 211.325 207.105 209.944 207.105 208.468H203.105ZM202.54 210.41C202.216 210.928 201.797 211.299 201.251 211.556L202.955 215.176C204.199 214.59 205.203 213.697 205.932 212.53L202.54 210.41ZM201.209 211.577C195.568 214.398 189.842 215.79 184.012 215.79V219.79C190.506 219.79 196.841 218.233 202.997 215.155L201.209 211.577Z" fill="white"/>
    <g filter="url(#filter1_d_0_48)">
    <path d="M272 102H192C179.85 102 170 92.1503 170 80V0L272 102Z" fill="url(#paint2_linear_0_48)"/>
    </g>
    </g>
    <defs>
    <filter id="filter0_f_0_48" x="9" y="110" width="256" height="162" filterUnits="userSpaceOnUse" color-interpolation-filters="sRGB">
    <feFlood flood-opacity="0" result="BackgroundImageFix"/>
    <feBlend mode="normal" in="SourceGraphic" in2="BackgroundImageFix" result="shape"/>
    <feGaussianBlur stdDeviation="19.5" result="effect1_foregroundBlur_0_48"/>
    </filter>
    <filter id="filter1_d_0_48" x="147" y="-24" width="152" height="152" filterUnits="userSpaceOnUse" color-interpolation-filters="sRGB">
    <feFlood flood-opacity="0" result="BackgroundImageFix"/>
    <feColorMatrix in="SourceAlpha" type="matrix" values="0 0 0 0 0 0 0 0 0 0 0 0 0 0 0 0 0 0 127 0" result="hardAlpha"/>
    <feOffset dx="2" dy="1"/>
    <feGaussianBlur stdDeviation="12.5"/>
    <feColorMatrix type="matrix" values="0 0 0 0 0 0 0 0 0 0 0 0 0 0 0 0 0 0 0.33 0"/>
    <feBlend mode="normal" in2="BackgroundImageFix" result="effect1_dropShadow_0_48"/>
    <feBlend mode="normal" in="SourceGraphic" in2="effect1_dropShadow_0_48" result="shape"/>
    </filter>
    <linearGradient id="paint0_linear_0_48" x1="136" y1="0" x2="136" y2="308" gradientUnits="userSpaceOnUse">
    <stop stopColor="#FF7979"/>
    <stop offset="1" stopColor="#E85555"/>
    </linearGradient>
    <linearGradient id="paint1_linear_0_48" x1="136" y1="0" x2="136" y2="308" gradientUnits="userSpaceOnUse">
    <stop stopColor="#ED81FF"/>
    <stop offset="1" stopColor="#DC5DD7"/>
    </linearGradient>
    <linearGradient id="paint2_linear_0_48" x1="192.5" y1="-32" x2="221" y2="102" gradientUnits="userSpaceOnUse">
    <stop stopColor="#F171BE"/>
    <stop offset="1" stopColor="#D823D1"/>
    </linearGradient>
    </defs>
    </svg>
    